<?xml version="1.0" encoding="utf-8"?>
<!-- Generator: Adobe Illustrator 26.0.3, SVG Export Plug-In . SVG Version: 6.00 Build 0)  -->
<svg version="1.1" id="Layer_1" xmlns="http://www.w3.org/2000/svg" xmlns:xlink="http://www.w3.org/1999/xlink" x="0px" y="0px"
	 viewBox="0 0 193.7 71.7" style="enable-background:new 0 0 193.7 71.7;" xml:space="preserve">
<style type="text/css">
	.st0{enable-background:new    ;}
	.st1{fill:#C49A6C;}
	.st2{fill:#057F62;}
</style>
<g id="Layer_2_00000002344065802271965100000012202334202023810731_">
	<g id="Layer_1-2">
		<g class="st0">
			<path class="st1" d="M13.5,8L13.7,6c0-0.3,0-1,0.1-1.2c1.7,0,3.5-0.1,5.2-0.1h3.6c0.7,0,1.4-0.1,2.2-0.1c0.6,0,1.3,0.1,1.8,0.1
				C26.7,4.8,27,6.6,27,7c0,0.7,0.3,1.4,0.3,2.1v0.1c-0.1,0-0.2,0.1-0.2,0.1c-0.2,0.3-0.9,0.3-1.3,0.3c-0.6,0-0.8-2-2.5-2
				c-1.6,0-1.3,2.2-1.3,3.4c0,1.5,0,3,0,4.5c0,1.3,0.7,2.5,2,2.9c0,0.2-0.4,2-0.4,2.1C23.5,20.9,23.3,21,23,21
				c-0.8,0-1.6,0.2-2.4,0.2c-0.7,0-1.3-0.1-2-0.1c-0.4,0-0.8,0.1-1.3,0.1c0,0-0.1,0-0.1,0c-0.1-0.4-0.6-1.9-0.6-2.2
				c0-0.1,0.1-0.3,0.2-0.3c0.1-0.1,0.3-0.2,0.5-0.2c0.5-0.2,0.8-0.7,1.1-1.2c0.1-0.3,0.1-0.6,0.1-1c0-3.6,0.4-8.1-0.7-8.3
				c-1.2-0.1-1.9,0.3-2.4,1.3C15.1,9.9,15,10,14.8,10c-0.2,0-0.5-0.1-1.2-0.1c-0.2,0-0.4,0-0.4-0.3C13.2,9.4,13.4,8.4,13.5,8z"/>
			<path class="st1" d="M28.4,19.1c0.5-0.1,1-0.5,1.2-1c0.5-0.8,0.4-2.5,0.4-3.5l0-3.6c0-0.7,0-1.4,0-2.1c0-0.2-0.1-1.2-0.2-1.4
				c-0.3-0.4-0.6-0.7-1.1-0.8c-0.2,0-0.3-0.1-0.3-0.4c0-0.6,0.4-1.3,0.4-2c0.2-0.2,1-0.1,1.2-0.1c1.3,0,2.6,0,3.9,0
				c0.3,0,0.6-0.1,0.9-0.1C35.1,4.3,35,4.8,35,5c0,0.5,0.3,1,0.3,1.5c0,0.2-0.1,0.3-0.3,0.4c-0.6,0.1-0.9,0.5-1.2,0.9
				c-0.1,0.2-0.3,1.2-0.3,1.5c0,0.2,0.1,0.3,0.1,0.4c0,0.5,0,1,0,1.6c-0.1,2.5,0,2.4,0,3.5c0,0.3-0.1,0.6-0.1,0.9
				c0,0.5,0.1,2.4,0.6,2.7c0.2,0.2,0.6,0.3,0.8,0.5c0.1,0.2,0.4,0.3,0.5,0.4c0,0.5-0.2,1-0.4,1.5c-0.3,0.2-1.4,0.1-1.8,0.1
				c-0.5,0-1,0.1-1.6,0.1c-0.5,0-0.9-0.2-1.3-0.2c-0.4,0-0.8,0.1-1.2,0.1c-0.3,0-0.7-1.4-0.8-1.8C28.2,19.1,28.2,19.1,28.4,19.1z"/>
			<path class="st1" d="M39,17.5c0-0.4,0.1-0.8,0.1-1.2c0-0.5,0-0.9,0-1.4L39,9.7c0-0.2,0-0.4,0-0.5c0-1-0.6-1.3-1.3-1.9l-0.1-0.1
				c0-0.1,0-0.1,0-0.2c0-0.2,0.2-0.7,0.3-0.9C38,5.7,38,5,38.1,4.8c0.1-0.2,0.8-0.1,1.1-0.1c0.6,0,1.3-0.1,2-0.1
				c0.7,0,1.4,0.1,2,0.1c0.5,0,1-0.1,1.6-0.1c0.7,0,1.3,0,2,0c1,0,2-0.2,3-0.2c0.3,0,0.6,0,0.8,0.2c0,0.2,0,0.5,0,0.7
				c0,0.3,0,0.7,0,1c0,1.1-0.1,2.2-0.1,3.3c-0.4,0.2-1,0.2-1.4,0.3c-0.5-1.1-1.8-2.4-3.1-2.4c-0.3,0-0.7,0-1,0
				c-0.8,0-1.2-0.2-1.8,0.5c-0.1,0.1-0.1,0.1-0.1,0.2c0,0.6,0,1.2,0,1.8c0,0.6,0.2,0.8,0.5,1.3c0.1,0,0.2,0,0.3,0
				c0.9,0,2.2-0.4,2.6-1.3c0.1-0.2,0.7-0.4,1-0.4h0.1c0.1,0.4,0.1,3.2,0.1,3.8c0,0.5-0.1,1.1,0,1.6c-0.3,0.1-0.5,0.2-0.8,0.2
				c-0.8-0.8-1.5-1.3-2.7-1.3c-0.2,0-0.6,0.2-0.7,0.3c-0.6,0.4-0.4,1-0.4,1.6c0,0.5,0,0.8,0.3,1.2c0.3,0.4,1.4,0.7,1.9,0.7
				c1.8,0,3.5-0.7,4.4-2.3c0.2,0,0.4-0.1,0.6-0.1h0.4c0.3,0.3,0.1,3,0.1,3.6c0,0.3,0.1,0.7,0.1,1c0,0.2-0.1,0.4-0.2,0.6
				c-0.1,0.1-0.3,0.2-0.4,0.3c-0.5,0-1.1,0.1-1.6,0.1c-2.2,0-4.4-0.1-6.6-0.1c-1.2,0-2.5,0.1-3.7,0.1C38,21,37.6,20,37.6,19.6
				C37.6,18.9,38.9,18.3,39,17.5z M40.4,1.9c0,0,1.6-0.1,2.2-0.4s1-1.3,1-1.3h1.6c0,0,0.4,1,1.1,1.3c0.7,0.3,2.2,0.2,2.2,0.2l0,1.4
				l-3.6,0l-4.4,0.2L40.4,1.9z M40.9,23.1c0.8,0,1.5,0,2.3,0c0.7,0,1.2,0,1.9,0c0.7,0,1.4-0.1,2.1-0.1c0.2,0,0.8,0,1,0.1L48,24.6
				c-0.1,0.1-0.3,0.2-0.4,0.3c-1.7,0-3.1,0-4.8,0c-0.5,0-1.3,0.1-1.8,0.1L40.9,23.1z"/>
			<path class="st1" d="M54.2,17.4l0.2-7.8c0-1-0.3-2.3-1.5-2.5c0.1-0.5,0.2-0.9,0.4-1.4c0.1-0.3,0.4-0.6,0.5-0.9c0,0,0.1,0,0.2,0
				c0.7,0,1.4,0.1,2.2,0.1c0.5,0,1.1-0.1,1.6-0.1c0.1,0,0.2,0,0.3,0.1c0.3,0.4,0.9,1.6,1.1,2.1c0.5,1.2,1,2.3,1.6,3.4
				c0.4,0.8,0.7,1.6,1.2,2.3c0.1,0.1,0.2,0.2,0.3,0.2c0.2,0,0.3-0.1,0.3-0.2c0.4-0.6,0.6-1.4,0.9-2c0.7-1.5,1.5-3,2.1-4.6
				C65.9,5.5,66,5,66.2,4.6l0.1,0c0.8,0,1.7,0.1,2.5,0.1c0.5,0,1.1-0.1,1.6-0.1c0.2,0,0.3,0.1,0.4,0.2c0.1,0.1,0.5,2,0.5,2.1
				c-0.1,0-0.2,0.1-0.2,0.1c-1,0.3-1.2,1.7-1.2,2.6c0,2.5,0.2,5,0.2,7.5c0,1.5,1.6,1.4,1.6,1.9c0,0.2-0.3,0.8-0.3,1.1
				c-0.1,0.5-0.2,1-0.8,1c-0.2,0-0.4,0-0.6,0c-1.3,0-2.6,0-3.9,0c-0.5-0.3-0.4-1.2-0.6-1.7c0-0.4,1-0.9,1.2-1.5
				c0.2-0.6,0.2-1.3,0.2-1.9c0-1,0-2.1-0.2-3.2l-0.1-0.1c-0.2,0.1-0.3,0.2-0.4,0.4c-0.5,0.9-2,4.7-2,5.3c0,0.2-0.1,0.8-0.3,0.8
				c-0.2,0-0.4-0.1-0.6-0.1c-0.2,0-0.4,0-0.6,0c-0.2,0-0.5-0.1-0.7-0.1c-0.3,0-0.5,0.1-0.8,0.1c-0.1,0-0.2-0.1-0.2-0.2
				c-0.2-0.3-0.4-0.8-0.6-1.2c-0.3-0.6-2.3-4.4-2.5-4.4l-0.1,0c-0.3,0.3-0.3,2.5-0.3,3c0,2.5,1.4,2.4,1.4,3.1c0,0.6-0.1,1-0.4,1.5
				c0,0-0.1,0-0.1,0c-0.4,0-0.8-0.1-1.2-0.1c-0.8,0-1.6,0.1-2.3,0.1c-0.1,0-0.2,0.1-0.4,0.1c-0.5,0-0.9,0-1.4,0
				c-0.2-0.4-0.5-1.2-0.5-1.7C52.6,18.8,54.2,18.9,54.2,17.4z"/>
		</g>
		<g class="st0">
			<path class="st1" d="M79.3,8L79.6,6c0-0.3,0-1,0.1-1.2c1.7,0,3.5-0.1,5.2-0.1h3.6c0.7,0,1.4-0.1,2.2-0.1c0.6,0,1.3,0.1,1.8,0.1
				c0.1,0.2,0.4,2,0.4,2.4c0,0.7,0.3,1.4,0.3,2.1v0.1c-0.1,0-0.2,0.1-0.2,0.1c-0.2,0.3-0.9,0.3-1.3,0.3c-0.6,0-0.8-2-2.5-2
				c-1.6,0-1.3,2.2-1.3,3.4c0,1.5,0,3,0,4.5c0,1.3,0.7,2.5,2,2.9c0,0.2-0.4,2-0.4,2.1c-0.1,0.2-0.4,0.3-0.6,0.3
				c-0.8,0-1.6,0.2-2.4,0.2c-0.7,0-1.3-0.1-2-0.1c-0.4,0-0.8,0.1-1.3,0.1c0,0-0.1,0-0.1,0c-0.1-0.4-0.6-1.9-0.6-2.2
				c0-0.1,0.1-0.3,0.2-0.3c0.1-0.1,0.3-0.2,0.5-0.2c0.5-0.2,0.8-0.7,1.1-1.2c0.1-0.3,0.1-0.6,0.1-1c0-3.6,0.4-8.1-0.7-8.3
				c-1.2-0.1-1.9,0.3-2.4,1.3C81,9.9,80.9,10,80.7,10c-0.2,0-0.5-0.1-1.2-0.1c-0.2,0-0.4,0-0.4-0.3C79,9.4,79.3,8.4,79.3,8z"/>
		</g>
		<g class="st0">
			<path class="st1" d="M93,19.2L93,19.2c0.5-0.1,1.5-0.8,1.7-1.2c0.5-1,2.3-8,2.3-8.7c0-0.9,0-2.1-0.9-2.5c0.1-0.7,0.1-1.4,0.2-2.1
				c0.1,0,0.2,0,0.2,0c1.5,0,2.9-0.1,4.3-0.1c0.8,0,1.6,0,2.4,0c0.4,0,0.8,0,1.3,0c0.2,0.2,0.4,1.6,0.4,1.9c0,0.1,0,0.3,0,0.4
				c0,0.2-0.8,0.5-0.8,1.3c0,0.3,0,0.7,0,1c0.1,1,1.6,8.3,2.2,9c0.2,0.3,1.3,1,1.4,1.1c-0.2,0.6-0.3,1.2-0.4,1.8
				c-0.4,0.1-2.2,0-2.7,0c-0.6,0-2.3,0-2.7-0.1c-0.2-0.6-0.4-1.1-0.6-1.7c0.4-0.4,0.9-0.6,0.9-1.2c0-0.6-0.1-1.2-0.2-1.7l-0.1-0.1
				c-0.2,0-0.5,0-0.8,0c-0.3,0-0.6,0-0.9,0c-0.7,0-1.2,0-1.4,0.8c-0.1,0.3-0.2,0.7-0.2,1.1c0,0.4,0.5,0.9,0.9,1
				c-0.2,0.6-0.4,1.2-0.6,1.9C98.6,21,98.3,21,98.1,21c-0.6,0-1.3,0.2-1.9,0.2c-0.2,0-0.5-0.1-0.8-0.1c-0.7,0-1.4,0.1-2.1,0.1h-0.1
				C93.2,21,93,20,93,19.8C93,19.6,92.9,19.4,93,19.2z M96.5,23.1c0.8,0,1.5,0,2.3,0c0.7,0,1.2,0,1.9,0c0.7,0,1.4-0.1,2.1-0.1
				c0.2,0,0.8,0,1,0.1l-0.1,1.6c-0.1,0.1-0.3,0.2-0.4,0.3c-1.7,0-3.1,0-4.8,0c-0.5,0-1.3,0.1-1.8,0.1L96.5,23.1z M99.5,13.2
				c0.2,0.2,0.6,0.3,0.8,0.3c0.3,0,1.1-0.1,1.1-0.5c0-0.4-0.2-0.8-0.2-1.2c-0.1-0.7-0.3-1.5-0.4-2.2c0-0.2,0-0.3-0.1-0.4
				C100.1,9.2,99.5,12.6,99.5,13.2z"/>
			<path class="st1" d="M110.3,18c0.2-0.2,0.3-0.3,0.4-0.5c0.1-0.2,0.1-8.3,0.1-9c0-0.8-0.7-0.9-1.1-1.4c-0.1-0.1-0.4-0.1-0.4-0.4
				c0-0.2,0.7-2.2,0.8-2.3c0.5-0.1,3.6-0.3,4.3-0.3c0.6,0,1.1,0,1.7,0c0.3,0,0.5,0,0.8,0.1c0.2,0,0.4,0,0.5,0c0.9,0,2.4,0.2,3.2,0.7
				c0.2,0.1,0.5,0.3,0.7,0.4c0.5,0.2,0.4,0.5,0.7,0.9c0.8,0.9,1,2.2,1,3.3c0,4.2-3,5.6-6.6,6c-0.4,0-0.9,0.2-1.3,0.2l-0.1,0
				c-0.2,0.4-0.2,0.8-0.2,1.2c0,1.4,0.8,0.9,1.5,1.3c0,0.6-0.7,1.8-0.7,2.9c-0.2,0.1-2.2,0.1-2.5,0.1c-0.4,0-0.7-0.1-1.1-0.1
				c-0.7,0-1.4,0.1-2.1,0.1c-0.2,0-0.3-0.1-0.4-0.2c0,0-0.6-2.1-0.6-2.1C109.1,18.3,109.9,18.3,110.3,18z M114.8,10.6
				c0,0.5,0,0.8,0.4,1.1c0.3,0,0.7,0.1,1,0.1c0.2,0,0.3,0,0.5-0.1c1.5-0.4,2.4-0.7,2.4-2.4c0-1.5-1.2-2.1-2.6-2.1
				c-0.9,0-1.3,0.2-1.8,0.9c0,0.3-0.1,0.6-0.1,1C114.7,9.6,114.8,10.1,114.8,10.6z"/>
			<path class="st1" d="M130.6,19.6c0.2-0.5,1.4-0.8,1.5-1.3v-0.5c0-1.2,0.1-2.4,0.1-3.6c0-1.9,0-3.8,0-5.8V8
				c-0.3-0.3-1.5-0.9-1.5-1.3l0.2-0.5c0.1-0.3,0.1-1.6,0.5-1.6c0.2,0,0.3,0,0.5,0c1,0,1.9-0.1,2.9-0.1c0.8,0,1.7,0,2.4,0.1
				c0.2,0.2,0.3,2,0.3,2.3v0.1c-0.4,0.1-0.9,0.1-1.1,0.2c-0.8,0.4-0.6,1.4-0.6,2.1c0,0.3-0.1,0.7-0.1,1c0,1.1,1.3,1,2.1,1
				c1.2,0,1.8,0,2.8-0.6c0.1-0.2,0-1.1,0-1.4c0-0.5,0.1-0.9,0.1-1.4c0-1-0.6-1.3-1.4-1.8c0.1-0.5,0.3-1.1,0.5-1.6
				c0.5-0.1,0.8,0,1.3,0c0.7,0,1.4-0.1,2-0.1c0.8,0,1.6,0,2.4,0.1c0.1,0.1,0.5,1.1,0.5,1.2c0,0.1-0.1,0.2-0.2,0.2
				c-0.5,0.2-0.7,0.6-1.1,1c-0.3,0.3-0.2,2-0.2,2.3c0,0.5-0.1,1-0.1,1.5c0,1.8,0,3.3,0,5.5c0,0.5,0,1.1,0.1,1.6c0,0.5,0.9,0.9,1.3,1
				c0,0,0,0.1,0,0.1c0,0.1-0.5,1.7-0.6,1.9c0,0.1-0.2,0.2-0.3,0.2c-0.3-0.1-0.7,0-1,0c-0.3,0-0.6,0-0.9,0c-0.5,0-1,0-1.5,0
				c-0.5,0-1,0.1-1.5,0.1c-0.3-0.6-0.6-1.3-0.7-2c0.2-0.2,0.6-0.3,0.9-0.5c0.5-0.4,0.6-2.1,0.6-2.7c0-0.3,0-1.1-0.2-1.4
				c-0.2-0.1-0.8-0.2-1-0.2c-0.1,0-0.3,0-0.4,0c-0.8,0.1-1.5,0.1-2.3,0.1c-0.3,0-1,0.1-1,0.5v2.4c0,1.2,1.3,1.2,1.6,1.8l-0.2,0.9
				c-0.2,0.8-0.1,0.9-1,0.9c-1.5,0-3.1,0-4.6,0C131.2,21.1,130.9,20.1,130.6,19.6z"/>
		</g>
		<g class="st0">
			<path class="st1" d="M148.7,9.6c0.6-1.7,2.2-3.8,3.9-4.5c0.2-0.1,0.3-0.1,0.4-0.2c0.7-0.7,1.4-0.5,2.1-0.7c0.2,0,0.3-0.1,0.5-0.1
				c0.1,0,0.2,0,0.4,0c1.1,0,2.2,0,3.3,0.2c0.9,0.2,2.1,0.9,2.8,1.6c0.2,0.2,0.4,0.5,0.6,0.7c0.4,0.4,0.6,0.6,0.8,1
				c0.3,0.6,0.5,1.2,0.8,1.8c1,2.3,1,5-0.4,8c-0.5,1.1-0.9,1.5-1.8,2.4c-1.3,1.3-4.1,1.8-5.9,1.8c-0.7,0-1.5-0.1-2.2-0.4
				c-0.2-0.1-0.3-0.1-0.5-0.1c-0.6-0.2-1.1-0.5-1.6-0.8c-0.9-0.5-2.2-2.4-2.5-3.3C148.1,14.8,147.9,11.9,148.7,9.6z M152.7,14.8
				c0.7,1.7,2,3.1,3.9,3.1c1.8,0,3.1-1.1,3.8-2.7c0.5-1.3,0.7-2.2,0.5-3.6c-0.1-0.4-0.3-0.9-0.4-1.2c-0.5-1.2-1.1-1.7-2.1-2.5
				c-0.7-0.2-1.2-0.5-2-0.5c-1.8,0-3.2,1.6-3.8,3.2C152.2,11.8,152.1,13.4,152.7,14.8z M153.3,2c3.6-0.3,6.2-1.6,6.4-2l1.5,0.1
				l-0.2,2.3l-7.6,0.8L153.3,2z"/>
		</g>
		<g class="st0">
			<path class="st1" d="M165.8,19.2L165.8,19.2c0.5-0.1,1.5-0.8,1.7-1.2c0.5-1,2.3-8,2.3-8.7c0-0.9,0-2.1-0.9-2.5
				c0.1-0.7,0.1-1.4,0.2-2.1c0.1,0,0.2,0,0.2,0c1.5,0,2.9-0.1,4.3-0.1c0.8,0,1.6,0,2.4,0c0.4,0,0.8,0,1.3,0c0.2,0.2,0.4,1.6,0.4,1.9
				c0,0.1,0,0.3,0,0.4c0,0.2-0.8,0.5-0.8,1.3c0,0.3,0,0.7,0,1c0.1,1,1.6,8.3,2.2,9c0.2,0.3,1.3,1,1.4,1.1c-0.2,0.6-0.3,1.2-0.4,1.8
				c-0.4,0.1-2.2,0-2.7,0c-0.6,0-2.3,0-2.7-0.1c-0.2-0.6-0.4-1.1-0.6-1.7c0.4-0.4,0.9-0.6,0.9-1.2c0-0.6-0.1-1.2-0.2-1.7l-0.1-0.1
				c-0.2,0-0.5,0-0.8,0c-0.3,0-0.6,0-0.9,0c-0.7,0-1.2,0-1.4,0.8c-0.1,0.3-0.2,0.7-0.2,1.1c0,0.4,0.5,0.9,0.9,1
				c-0.2,0.6-0.4,1.2-0.6,1.9c-0.3-0.1-0.5-0.1-0.8-0.1c-0.6,0-1.3,0.2-1.9,0.2c-0.2,0-0.5-0.1-0.8-0.1c-0.7,0-1.4,0.1-2.1,0.1h-0.1
				c-0.1-0.1-0.3-1.2-0.3-1.4C165.8,19.6,165.7,19.4,165.8,19.2z M172.3,13.2c0.2,0.2,0.6,0.3,0.8,0.3c0.3,0,1.1-0.1,1.1-0.5
				c0-0.4-0.2-0.8-0.2-1.2c-0.1-0.7-0.3-1.5-0.4-2.2c0-0.2,0-0.3-0.1-0.4C172.9,9.2,172.3,12.6,172.3,13.2z"/>
		</g>
		<g class="st0">
			<path class="st2" d="M5.7,60.2H2.6C1.2,60.2,1,60,1,58.7V31.1c0-1.3,0.2-1.5,1.5-1.5h3.2c1.2,0,1.5,0.3,1.5,1.5v11.2h2.9V31.1
				c0-1.3,0.2-1.5,1.5-1.5h3.2c1.3,0,1.5,0.2,1.5,1.5v27.5c0,1.3-0.2,1.5-1.5,1.5h-3.2c-1.3,0-1.5-0.2-1.5-1.5V47.5H7.3v11.2
				C7.3,59.9,6.9,60.2,5.7,60.2z"/>
			<path class="st2" d="M13.8,25.8h17.3v1.8H13.8V25.8z M18.5,34.2v-3c0-1.3,0.2-1.5,1.5-1.5h3.2c1.3,0,1.5,0.2,1.5,1.5v3H18.5z
				 M24.7,36.5v22.2c0,1.3-0.2,1.5-1.5,1.5H20c-1.3,0-1.5-0.2-1.5-1.5V36.5H24.7z"/>
			<path class="st2" d="M40.6,60.2h-1.6c-1,0-1.8,0.1-2.2-1.2L32,43.7l0.3,5.7c0.2,2.3,0.3,4.2,0.3,5.7l0.3,3.6
				c0,1.3-0.2,1.5-1.5,1.5h-3.2c-1.3,0-1.5-0.2-1.5-1.5V31.1c0-1.3,0.2-1.5,1.5-1.5h1.6c1.2,0,1.9,0.4,2.3,1.2l4.3,13.8l-0.5-13.5
				c0-1.2,0.3-1.5,1.5-1.5h3.2c1.3,0,1.5,0.2,1.5,1.5v27.5C42.2,60,41.9,60.2,40.6,60.2z"/>
			<path class="st2" d="M48.9,60.2h-3.2c-1.3,0-1.5-0.2-1.5-1.5V31.1c0-1.3,0.2-1.5,1.5-1.5h3.2c1.2,0,1.5,0.3,1.5,1.5v11.2h2.9
				V31.1c0-1.3,0.2-1.5,1.5-1.5h3.2c1.3,0,1.5,0.2,1.5,1.5v27.5c0,1.3-0.2,1.5-1.5,1.5h-3.2c-1.3,0-1.5-0.2-1.5-1.5V47.5h-2.9v11.2
				C50.5,59.9,50.1,60.2,48.9,60.2z"/>
			<path class="st2" d="M85.4,51.6c0,5.3-2.7,8.7-7.7,8.7S70,56.8,70,51.6V38.3c0-5.3,2.7-8.7,7.7-8.7s7.7,3.4,7.7,8.7v1
				c0,1.2-0.3,1.5-1.5,1.5h-3.2c-1.2,0-1.5-0.2-1.5-1.5v-0.5c0-3-0.3-4.1-1.5-4.1c-1.1,0-1.5,1.1-1.5,4.1V51c0,3,0.3,4.1,1.5,4.1
				c1.2,0,1.5-1,1.5-4.1v-0.5c0-1.3,0.3-1.5,1.5-1.5h3.2c1.2,0,1.5,0.3,1.5,1.5V51.6z"/>
			<path class="st2" d="M92,60.2h-3.2c-1.3,0-1.5-0.2-1.5-1.5V31.1c0-1.3,0.2-1.5,1.5-1.5H92c1.2,0,1.5,0.3,1.5,1.5v11.2h2.9V31.1
				c0-1.3,0.2-1.5,1.5-1.5h3.2c1.3,0,1.5,0.2,1.5,1.5v27.5c0,1.3-0.2,1.5-1.5,1.5H98c-1.3,0-1.5-0.2-1.5-1.5V47.5h-2.9v11.2
				C93.5,59.9,93.2,60.2,92,60.2z"/>
			<path class="st2" d="M104.6,31.1c0-1.3,0.3-1.5,1.5-1.5h3.2c1.2,0,1.5,0.2,1.5,1.5V51c0,3,0.3,4.1,1.5,4.1c1.2,0,1.5-1,1.5-4.1
				V31.1c0-1.3,0.3-1.5,1.5-1.5h3.2c1.2,0,1.5,0.2,1.5,1.5v0.4h0.1c0.8,0,1.5-0.4,2.2-1.2c-0.2,0-0.4,0.1-0.5,0.1
				c-1.3,0-1.9-0.7-1.7-1.8s1.3-1.7,2.5-1.7c1.4,0,1.9,1.1,1.6,2.4c-0.5,2-2.4,3.2-4.2,3.2v18.9c0,5.3-2.7,8.7-7.7,8.7
				s-7.7-3.4-7.7-8.7V31.1z M109.9,23.5c2.8,0,4.7,1.9,7.1,1.9c3.2,0,4.5-1.6,4.5-1.6s0.2,1.7,0.2,1.8s-1.6,1.5-4.8,1.5
				c-3.2,0-4.2-1.7-7.3-1.7c-2.7,0-4,1.3-4,1.3l-0.3-1.8C106.7,24.1,107.9,23.5,109.9,23.5z"/>
			<path class="st2" d="M144.3,60.2h-1.6c-1,0-1.8,0.1-2.2-1.2l-4.9-15.3l0.3,5.7c0.2,2.3,0.3,4.2,0.3,5.7l0.3,3.6
				c0,1.3-0.2,1.5-1.5,1.5h-3.2c-1.3,0-1.5-0.2-1.5-1.5V31.1c0-1.3,0.2-1.5,1.5-1.5h1.6c1.2,0,1.9,0.4,2.3,1.2l4.3,13.8l-0.5-13.5
				c0-1.2,0.3-1.5,1.5-1.5h3.2c1.3,0,1.5,0.2,1.5,1.5v27.5C145.8,60,145.6,60.2,144.3,60.2z"/>
			<path class="st2" d="M152.5,60.2h-3.2c-1.3,0-1.5-0.2-1.5-1.5V31.1c0-1.3,0.2-1.5,1.5-1.5h3.2c1.2,0,1.5,0.3,1.5,1.5v11.2h2.9
				V31.1c0-1.3,0.2-1.5,1.5-1.5h3.2c1.3,0,1.5,0.2,1.5,1.5v27.5c0,1.3-0.2,1.5-1.5,1.5h-3.2c-1.3,0-1.5-0.2-1.5-1.5V47.5h-2.9v11.2
				C154.1,59.9,153.7,60.2,152.5,60.2z"/>
		</g>
		<g class="st0">
			<path class="st2" d="M174.7,55.1h-3.4l-0.3,3.6c-0.2,1.2-0.5,1.5-1.7,1.5H166c-1.3,0-1.5-0.3-1.4-1.5l3.7-27.5
				c0.2-1.3,0.5-1.5,1.7-1.5h6c1.2,0,1.6,0.3,1.7,1.5l3.6,27.5c0.2,1.2-0.1,1.5-1.4,1.5h-3.1c-1.3,0-1.6-0.3-1.8-1.5L174.7,55.1z
				 M165.1,27.4l7.8-3.5l7.8,3.5l-0.8,1.6l-7-3.1l-7,3.1L165.1,27.4z M167.2,62.4h11.1v2h-11.1V62.4z M171.8,50h2.4l-1.2-12
				L171.8,50z"/>
		</g>
		<g class="st0">
			<path class="st2" d="M188.1,60.2h-3.2c-1.3,0-1.5-0.2-1.5-1.5v-24h-2c-1.3,0-1.5-0.2-1.5-1.5v-2c0-1.3,0.2-1.5,1.5-1.5h10.2
				c1.3,0,1.5,0.2,1.5,1.5v2c0,1.3-0.2,1.5-1.5,1.5h-2v24C189.6,60,189.4,60.2,188.1,60.2z"/>
		</g>
	</g>
</g>
</svg>
